<svg width="400" height="459" viewBox="0 0 400 459" fill="none" xmlns="http://www.w3.org/2000/svg">
<g clip-path="url(#clip0_615_8103)">
<path d="M4.83765 336.36L53.1893 365.886L343.366 208.837L340.739 315.708L198.636 394.528L198.886 452.297L352.007 366.562C375.553 353.725 390.466 329.303 391.125 302.496L395.521 119.24L4.83765 336.36Z" fill="#131315"/>
<path d="M347.178 91.6488L57.001 248.698L59.6284 141.827L201.731 63.0065L201.48 5.23804L48.3516 90.9732C24.8055 103.81 9.89217 128.232 9.23325 155.039L4.83765 338.295L395.529 121.175L347.178 91.6488Z" fill="#FAFAFA"/>
<path d="M149.943 365.386L149.692 426.04L196.009 453.256L196.176 392.643L149.943 365.386Z" fill="#8AED13"/>
<path d="M203.074 6.05542L202.823 66.7098L249.14 93.9341L249.307 33.3215L203.074 6.05542Z" fill="#8AED13"/>
<path d="M105.319 224.56L105.57 173.038L59.2531 146.648L58.7526 250.366L105.319 224.56Z" fill="#8AED13"/>
<path d="M295.189 284.797L294.948 233.276L341.264 206.885L341.756 310.603L295.189 284.797Z" fill="#8AED13"/>
<path d="M107.513 174.556L252.118 95.7357L202.898 65.567L58.1938 144.446L107.513 174.556Z" fill="#131315"/>
<path d="M293.321 283.804L148.717 362.625L197.927 392.793L342.64 313.914L293.321 283.804Z" fill="#FAFAFA"/>
<path d="M396.697 113.418L396.655 113.393L347.753 84.7843C346.736 84.1837 345.568 83.8668 344.384 83.8668C343.199 83.8668 342.098 84.1671 341.097 84.7342L114.161 213.141L114.353 179.194L253.986 99.6393L254.061 99.5976L254.712 99.2389L254.945 98.9887C255.104 98.8636 255.304 98.6967 255.504 98.4966C255.729 98.2714 255.904 98.0545 256.03 97.8877C256.18 97.7042 256.363 97.4623 256.547 97.1537V97.137L256.572 97.1203C256.722 96.8701 256.822 96.6449 256.889 96.4614C257.264 95.619 257.464 94.7265 257.464 93.809L257.798 36.0239C257.814 33.6468 256.547 31.4282 254.495 30.2271L204.375 0.909148C203.357 0.30861 202.19 0 201.005 0C199.821 0 198.695 0.30861 197.686 0.884125C197.168 1.18439 196.693 1.54305 196.276 1.96843L42.2964 89.697C17.0071 104.11 1.1929 131.142 1.02608 160.252L0.00016262 339.387C-0.016519 341.764 1.25128 343.983 3.30312 345.184L3.34483 345.209L52.247 373.818C53.2645 374.419 54.4323 374.736 55.6167 374.736C56.801 374.736 57.902 374.435 58.9029 373.868L285.84 245.462L285.648 279.409L147.049 358.371H146.298L145.105 359.564C144.93 359.697 144.713 359.872 144.496 360.089C144.263 360.323 144.088 360.54 143.962 360.706C143.812 360.89 143.629 361.132 143.445 361.44C143.287 361.716 143.17 361.966 143.103 362.133C142.728 362.975 142.528 363.876 142.528 364.793L142.194 422.57C142.178 424.947 143.445 427.166 145.497 428.367L195.617 457.685C196.643 458.286 197.802 458.594 198.987 458.594C200.171 458.594 201.297 458.286 202.306 457.71C202.824 457.418 203.299 457.051 203.716 456.626L357.696 368.897C382.985 354.484 398.807 327.452 398.966 298.342L399.992 119.207C400.008 116.83 398.741 114.611 396.689 113.41L396.697 113.418ZM71.1723 146.206L200.972 72.2481L237.471 93.6923L107.747 167.6L71.1723 146.206ZM194.274 60.7127L54.524 140.334C52.4555 141.51 51.171 143.72 51.1543 146.098L50.5454 251.834V253.01V253.752L50.5871 253.902C50.7873 255.687 51.7132 257.322 53.1311 258.432L53.2896 258.59L53.8484 258.915C53.8484 258.915 53.8651 258.924 53.8734 258.932L53.9819 258.999L54.0319 259.024C55.0078 259.549 56.1004 259.833 57.2181 259.833C58.3358 259.833 59.5118 259.533 60.5127 258.965L110.724 230.473C110.916 230.365 111.083 230.256 111.225 230.156L344.325 98.2463L379.932 119.082L13.4122 327.902L14.3714 160.319C14.5132 135.963 27.7417 113.343 48.9106 101.282L194.341 18.4332V47.4842L194.274 60.7127ZM63.9491 241.55L64.4245 157.725L100.999 179.119L100.757 220.714L63.9408 241.55H63.9491ZM207.695 47.4258L207.861 18.4082L244.436 39.8107L244.194 82.1653L207.695 60.7294V47.4342V47.4258ZM328.828 312.397L199.028 386.354L162.529 364.91L292.254 291.002L328.828 312.397ZM205.726 397.898L345.476 318.277C347.545 317.101 348.829 314.89 348.846 312.513L349.455 205.492C349.463 203.407 348.487 201.439 346.861 200.179L346.702 200.021L346.144 199.696L345.86 199.529L345.752 199.487C344.826 199.028 343.808 198.786 342.774 198.786C341.623 198.786 340.48 199.087 339.479 199.654L289.268 228.146C289.076 228.254 288.909 228.363 288.767 228.463L55.6667 360.356L20.0598 339.521L386.588 130.692L385.629 298.267C385.487 322.622 372.259 345.243 351.09 357.303L205.659 440.161V411.093L205.726 397.881V397.898ZM336.051 217.053L335.567 300.878L298.993 279.484L299.235 237.888L336.051 217.053ZM192.306 411.16L192.139 440.194L155.565 418.8L155.806 376.446L192.306 397.881V411.16Z" fill="#131315"/>
</g>
<defs>
<clipPath id="clip0_615_8103">
<rect width="400" height="458.603" fill="white"/>
</clipPath>
</defs>
</svg>